# xmcd
#
# Track frame offsets: 
#        150
#        11996
#        18138
#        25263
#        29253
#        37468
#        48800
#        59623
#        71193
#        79723
#        83768
#        94883
#        102438
#        127538
#        140633
#        149078
#        157688
#        165833
#        180768
#        192193
#        217883
#        228993
#        242763
#        260053
#        278438
#        285468
#        293048
#        298323
#        306348
#        320088
#        330478
#
# Disc length: 4603 seconds
#
# Revision: 0
# Processed by: cddbd v1.5.2PL0 Copyright (c) Steve Scherf et al.
# Submitted via: ExactAudioCopy v1.0b1
#
DISCID=bb11f91f
DTITLE=Easdale, Brian - The Film Music Of Brian Easdale
DYEAR=2011
DGENRE=Classical
TTITLE0=Ballet From 'The Red Shoes', I. Allegro Vivace -
TTITLE1=Ballet From 'The Red Shoes', II. Allegro Moderato E Molto Ritm
TTITLE1=ico -
TTITLE2=Ballet From 'The Red Shoes', III. Poco Più Mosso -
TTITLE3=Ballet From 'The Red Shoes', IV. Lento Tranquillo -
TTITLE4=Ballet From 'The Red Shoes', V. Largo -
TTITLE5=Ballet From 'The Red Shoes', VI. Presto, Quasi Cadenza -
TTITLE6=Ballet From 'The Red Shoes', VII. Allegro Assai -
TTITLE7=Ballet From 'The Red Shoes', VIII. Sostenuto
TTITLE8=Suite From 'Kew Gardens', 1. Introduction And Allegretto -
TTITLE9=Suite From 'Kew Gardens', 2. Spring Flowers -
TTITLE10=Suite From 'Kew Gardens', 3. Summer Sequence -
TTITLE11=Suite From 'Kew Gardens', 4. Finale
TTITLE12=Suite From 'Black Narcissus', 1. Main Titles And The Palace O
TTITLE12=f Mopu -
TTITLE13=Suite From 'Black Narcissus', 2. Irish Song -
TTITLE14=Suite From 'Black Narcissus', 3. Sister Ruth And Mr Dean -
TTITLE15=Suite From 'Black Narcissus', 4. Hunting Song -
TTITLE16=Suite From 'Black Narcissus', 5. Death Of Sister Ruth
TTITLE17=Prelude And March From 'The Battle Of The River Plate', 1. Pr
TTITLE17=elude -
TTITLE18=Prelude And March From 'The Battle Of The River Plate', 2. Ma
TTITLE18=rch
TTITLE19=Suite From 'Adventure On!', 1. Prelude And Pastorale
TTITLE20=Suite From 'Adventure On!', 2. Intermezzo And Dance (Africa)
TTITLE21=Suite From 'Adventure On!', 3. Barcarolle And Sultan's Fanfar
TTITLE21=e (Aden)
TTITLE22=Suite From 'Adventure On!', 4. Pastorale And Lullaby (India)
TTITLE23=Suite From 'Adventure On!', 5. Final Progress (Malaya To Fiji
TTITLE23=)
TTITLE24=Suite From 'Gone To Earth', 1. Titles -
TTITLE25=Suite From 'Gone To Earth', 2. The Hunt Of The Death Pack -
TTITLE26=Suite From 'Gone To Earth', 3. The Prayer -
TTITLE27=Suite From 'Gone To Earth', 4. The Shropshire County Fair -
TTITLE28=Suite From 'Gone To Earth', 5. Hunter's Spinney -
TTITLE29=Suite From 'Gone To Earth', 6. Undern Morning -
TTITLE30=Suite From 'Gone To Earth', 7. Finale
EXTD=
EXTT0=
EXTT1=
EXTT2=
EXTT3=
EXTT4=
EXTT5=
EXTT6=
EXTT7=
EXTT8=
EXTT9=
EXTT10=
EXTT11=
EXTT12=
EXTT13=
EXTT14=
EXTT15=
EXTT16=
EXTT17=
EXTT18=
EXTT19=
EXTT20=
EXTT21=
EXTT22=
EXTT23=
EXTT24=
EXTT25=
EXTT26=
EXTT27=
EXTT28=
EXTT29=
EXTT30=
PLAYORDER=
